{
  "accessors": [
    {
      "bufferView": 3,
      "componentType": 5126,
      "count": 6056,
      "max": [
        131.93441772460938,
        224.90650939941406,
        116.14004516601562
      ],
      "min": [
        -131.93441772460938,
        -252.61587524414062,
        -165.89424133300781
      ],
      "type": "VEC3"
    },
    {
      "bufferView": 3,
      "byteOffset": 72672,
      "componentType": 5126,
      "count": 6056,
      "max": [
        1,
        0.99983417987823486,
        0.99997693300247192
      ],
      "min": [
        -1,
        -0.99999552965164185,
        -0.99998986721038818
      ],
      "type": "VEC3"
    },
    {
      "bufferView": 2,
      "componentType": 5126,
      "count": 6056,
      "max": [
        0.87500035762786865,
        1.0000002384185791
      ],
      "min": [
        0.125,
        0
      ],
      "type": "VEC2"
    },
    {
      "bufferView": 1,
      "componentType": 5125,
      "count": 28416,
      "max": [
        6055
      ],
      "min": [
        0
      ],
      "type": "SCALAR"
    },
    {
      "bufferView": 3,
      "byteOffset": 145344,
      "componentType": 5126,
      "count": 212,
      "max": [
        82.375816345214844,
        141.1517333984375,
        147.0167236328125
      ],
      "min": [
        -82.472999572753906,
        35.2674560546875,
        52.920352935791016
      ],
      "type": "VEC3"
    },
    {
      "bufferView": 3,
      "byteOffset": 147888,
      "componentType": 5126,
      "count": 212,
      "max": [
        1,
        0.99979668855667114,
        0.9994271993637085
      ],
      "min": [
        -1,
        -0.99979668855667114,
        -0.9994271993637085
      ],
      "type": "VEC3"
    },
    {
      "bufferView": 2,
      "byteOffset": 48448,
      "componentType": 5126,
      "count": 212,
      "max": [
        0.87500011920928955,
        1.0000001192092896
      ],
      "min": [
        0.12500001490116119,
        0
      ],
      "type": "VEC2"
    },
    {
      "bufferView": 1,
      "byteOffset": 113664,
      "componentType": 5125,
      "count": 960,
      "max": [
        211
      ],
      "min": [
        0
      ],
      "type": "SCALAR"
    },
    {
      "bufferView": 5,
      "componentType": 5126,
      "count": 13,
      "max": [
        1,
        0.00017144330195151269,
        2.8289471742937167e-07,
        0,
        1.8790672129398445e-08,
        1,
        2.4183655078502397e-09,
        0,
        2.8311109190326533e-07,
        0.0098516475409269333,
        1,
        0,
        0.65946990251541138,
        1.2420699596405029,
        1.2783423662185669,
        1
      ],
      "min": [
        -0.01000618189573288,
        -1.6234527943373989e-17,
        0,
        0,
        -0.00017157448746729642,
        -0.0099985310807824135,
        -0.0098516475409269333,
        0,
        -3.2732485610864615e-09,
        -2.4320299107927212e-09,
        0.0017161113210022449,
        0,
        -0.73740994930267334,
        -1.3428810834884644,
        -0.00019673553470056504,
        1
      ],
      "type": "MAT4"
    },
    {
      "bufferView": 0,
      "componentType": 5123,
      "count": 6056,
      "max": [
        11,
        11,
        11,
        11
      ],
      "min": [
        1,
        1,
        1,
        1
      ],
      "type": "VEC4"
    },
    {
      "bufferView": 4,
      "componentType": 5126,
      "count": 6056,
      "max": [
        1,
        0.4997117817401886,
        0.30882862210273743,
        0.15083730220794678
      ],
      "min": [
        0.33505931496620178,
        0,
        0,
        0
      ],
      "type": "VEC4"
    },
    {
      "bufferView": 0,
      "byteOffset": 48448,
      "componentType": 5123,
      "count": 212,
      "max": [
        7,
        7,
        7,
        7
      ],
      "min": [
        7,
        7,
        7,
        7
      ],
      "type": "VEC4"
    },
    {
      "bufferView": 4,
      "byteOffset": 96896,
      "componentType": 5126,
      "count": 212,
      "max": [
        1,
        0,
        0,
        0
      ],
      "min": [
        1,
        0,
        0,
        0
      ],
      "type": "VEC4"
    }
  ],
  "asset": {
    "extras": {
      "author": "Razeen Bhai (https://sketchfab.com/razeenbaig10)",
      "license": "CC-BY-4.0 (http://creativecommons.org/licenses/by/4.0/)",
      "source": "https://sketchfab.com/3d-models/among-us-character-f0a411df29f84038847533d3d4f92855",
      "title": "Among Us Character"
    },
    "generator": "Sketchfab-9.73.0",
    "version": "2.0"
  },
  "bufferViews": [
    {
      "buffer": 0,
      "byteLength": 50144,
      "byteOffset": 0,
      "byteStride": 8,
      "name": "shortBufferViews",
      "target": 34962
    },
    {
      "buffer": 0,
      "byteLength": 117504,
      "byteOffset": 50144,
      "name": "floatBufferViews",
      "target": 34963
    },
    {
      "buffer": 0,
      "byteLength": 50144,
      "byteOffset": 167648,
      "byteStride": 8,
      "name": "floatBufferViews",
      "target": 34962
    },
    {
      "buffer": 0,
      "byteLength": 150432,
      "byteOffset": 217792,
      "byteStride": 12,
      "name": "floatBufferViews",
      "target": 34962
    },
    {
      "buffer": 0,
      "byteLength": 100288,
      "byteOffset": 368224,
      "byteStride": 16,
      "name": "floatBufferViews",
      "target": 34962
    },
    {
      "buffer": 0,
      "byteLength": 832,
      "byteOffset": 468512,
      "byteStride": 64,
      "name": "floatBufferViews"
    }
  ],
  "buffers": [
    {
      "byteLength": 469344,
      "uri": "scene.bin"
    }
  ],
  "materials": [
    {
      "doubleSided": true,
      "emissiveFactor": [
        0,
        0,
        0
      ],
      "name": "Skin",
      "pbrMetallicRoughness": {
        "baseColorFactor": [
          0.80000000000000004,
          0.038251599999999997,
          0.055822700000000003,
          1
        ],
        "metallicFactor": 0,
        "roughnessFactor": 0.95495039835835693
      }
    },
    {
      "doubleSided": true,
      "emissiveFactor": [
        0,
        0,
        0
      ],
      "name": "Glasses",
      "pbrMetallicRoughness": {
        "baseColorFactor": [
          0.136407,
          0.56697500000000001,
          0.80000000000000004,
          1
        ],
        "metallicFactor": 0,
        "roughnessFactor": 0.88992717279766897
      }
    }
  ],
  "meshes": [
    {
      "name": "Cube_Skin_0",
      "primitives": [
        {
          "attributes": {
            "JOINTS_0": 9,
            "NORMAL": 1,
            "POSITION": 0,
            "TEXCOORD_0": 2,
            "WEIGHTS_0": 10
          },
          "indices": 3,
          "material": 0,
          "mode": 4
        }
      ]
    },
    {
      "name": "Cube_Glasses_0",
      "primitives": [
        {
          "attributes": {
            "JOINTS_0": 11,
            "NORMAL": 5,
            "POSITION": 4,
            "TEXCOORD_0": 6,
            "WEIGHTS_0": 12
          },
          "indices": 7,
          "material": 1,
          "mode": 4
        }
      ]
    }
  ],
  "nodes": [
    {
      "children": [
        1
      ],
      "name": "RootNode (gltf orientation matrix)",
      "rotation": [
        -0.70710678118654746,
        -0,
        -0,
        0.70710678118654757
      ]
    },
    {
      "children": [
        2
      ],
      "name": "RootNode (model correction matrix)"
    },
    {
      "children": [
        3
      ],
      "matrix": [
        1,
        0,
        0,
        0,
        0,
        0,
        1,
        0,
        0,
        -1,
        0,
        0,
        0,
        0,
        0,
        1
      ],
      "name": "923d11bd105e45dca4fe0b98377414a6.fbx"
    },
    {
      "children": [
        4,
        7,
        9
      ],
      "name": "RootNode"
    },
    {
      "children": [
        5
      ],
      "matrix": [
        -29.08647719990347,
        -5.5189064575668629,
        -95.517119101714371,
        0,
        56.639309131094492,
        79.467234285632031,
        -21.839123978419661,
        0,
        77.110087759933748,
        -60.452463565620441,
        -19.988346967737169,
        0,
        407.62454223632812,
        590.38623046875,
        -100.54539489746094,
        1
      ],
      "name": "Light"
    },
    {
      "children": [
        6
      ],
      "matrix": [
        1,
        0,
        0,
        0,
        0,
        2.2204460492503131e-16,
        1,
        0,
        0,
        -1,
        2.2204460492503131e-16,
        0,
        0,
        0,
        0,
        1
      ],
      "name": ""
    },
    {
      "name": ""
    },
    {
      "children": [
        8
      ],
      "matrix": [
        -65.155832803290963,
        -44.527135765708579,
        -61.417030473735487,
        0,
        -32.40134137821245,
        89.539574512336159,
        -30.542088974418615,
        0,
        68.592054721299746,
        -1.0718647115348782e-05,
        -72.767633623962695,
        0,
        735.88916015625,
        495.8309326171875,
        692.5791015625,
        1
      ],
      "name": "Camera"
    },
    {
      "name": ""
    },
    {
      "children": [
        10
      ],
      "matrix": [
        100,
        0,
        0,
        0,
        0,
        -1.6292067939183141e-05,
        -99.999999999998678,
        0,
        0,
        99.999999999998678,
        -1.6292067939183141e-05,
        0,
        0,
        -124.20699310302734,
        0,
        1
      ],
      "name": "Armature"
    },
    {
      "children": [
        11,
        13,
        14,
        12
      ],
      "name": ""
    },
    {
      "children": [
        15
      ],
      "name": "_rootJoint"
    },
    {
      "matrix": [
        102.69545316696167,
        -1.1263086435146587e-15,
        -2.783293964697189e-17,
        0,
        2.4201652931808071e-17,
        4.4106666738898284,
        -89.188289657096277,
        0,
        1.2830628969190716e-15,
        116.84532165522613,
        5.7784017185000289,
        0,
        1.7803659786885031e-15,
        39.443710327148438,
        -85.433286428451538,
        1
      ],
      "name": ""
    },
    {
      "mesh": 0,
      "name": "",
      "skin": 0
    },
    {
      "mesh": 1,
      "name": "",
      "skin": 0
    },
    {
      "children": [
        16,
        23,
        25
      ],
      "name": "Bone_00",
      "rotation": [
        0.7071068286895752,
        0,
        0,
        0.70710670948028564
      ]
    },
    {
      "children": [
        17,
        19,
        21
      ],
      "name": "Bone.001_01",
      "scale": [
        1,
        0.99999994039535522,
        1
      ],
      "translation": [
        0,
        1,
        0
      ]
    },
    {
      "children": [
        18
      ],
      "name": "Bone.002_02",
      "translation": [
        0,
        1.5849510431289673,
        0
      ]
    },
    {
      "name": "Bone.002_end_07",
      "translation": [
        0,
        0.89219093322753906,
        0
      ]
    },
    {
      "children": [
        20
      ],
      "name": "Bone.005_03",
      "rotation": [
        0.047538992017507553,
        1.1907457775350849e-07,
        5.667090796634966e-09,
        0.99886947870254517
      ],
      "translation": [
        -0.0013878941535949707,
        0.21576797962188721,
        -1.2866559028625488
      ]
    },
    {
      "name": "Bone.005_end_08",
      "rotation": [
        0,
        -0,
        -4.963083675318166e-24,
        1
      ],
      "translation": [
        2.1684043449710089e-19,
        1,
        0
      ]
    },
    {
      "children": [
        22
      ],
      "name": "Bone.006_04",
      "rotation": [
        0.64357948303222656,
        7.2992850164155243e-07,
        6.1376999838103075e-07,
        0.76537925004959106
      ],
      "scale": [
        1,
        1,
        1.0000001192092896
      ],
      "translation": [
        0.0058410763740539551,
        1.1379977464675903,
        1.0761833190917969
      ]
    },
    {
      "name": "Bone.006_end_09",
      "rotation": [
        2.8025969286496341e-45,
        8.9335506155726989e-23,
        -2.6469779601696886e-23,
        1
      ],
      "translation": [
        0,
        0.38355943560600281,
        1.1102230246251565e-16
      ]
    },
    {
      "children": [
        24
      ],
      "name": "Bone.003_05",
      "rotation": [
        1.413982408848824e-05,
        -4.8076248537753941e-10,
        0.99996328353881836,
        -0.0085692107677459717
      ],
      "scale": [
        0.99923527240753174,
        0.99999994039535522,
        1
      ],
      "translation": [
        0.67952996492385864,
        0.04841160774230957,
        0.00017780065536499023
      ]
    },
    {
      "name": "Bone.003_end_010",
      "rotation": [
        -2.6469779601696886e-23,
        1.6940658945086007e-21,
        -3.0624183075849655e-19,
        1
      ],
      "translation": [
        0,
        1.2254092693328857,
        0
      ]
    },
    {
      "children": [
        26
      ],
      "name": "Bone.004_06",
      "rotation": [
        1.413982408848824e-05,
        -4.8076248537753941e-10,
        0.99996328353881836,
        -0.0085692107677459717
      ],
      "scale": [
        0.99923527240753174,
        0.99999994039535522,
        1
      ],
      "translation": [
        -0.71648687124252319,
        0.04841160774230957,
        0.00017780065536499023
      ]
    },
    {
      "name": "Bone.004_end_011",
      "rotation": [
        -2.6469779601696886e-23,
        1.6940658945086007e-21,
        -3.0624183075849655e-19,
        1
      ],
      "translation": [
        0,
        1.2254092693328857,
        -2.7105054312137611e-20
      ]
    }
  ],
  "scene": 0,
  "scenes": [
    {
      "name": "OSG_Scene",
      "nodes": [
        0
      ]
    }
  ],
  "skins": [
    {
      "inverseBindMatrices": 8,
      "joints": [
        11,
        15,
        16,
        17,
        18,
        19,
        20,
        21,
        22,
        23,
        24,
        25,
        26
      ],
      "skeleton": 11
    }
  ]
}

